# AST/ASF file generated using VICON BodyLanguage
# -----------------------------------------------
:version 1.10
:name VICON
:units
  mass 1.0
  length 0.45
  angle deg
:documentation
   .ast/.asf automatically generated from VICON data using
   VICON BodyBuilder and BodyLanguage model FoxedUp or BRILLIANT.MOD
:root
   order TX TY TZ RX RY RZ
   axis XYZ
   position 0 0 0  
   orientation 0 0 0 
:bonedata
  begin
     id 1 
     name lhipjoint
     direction 0.597014 -0.743513 0.301268 
     length 2.48253 
     axis 0 0 0  XYZ
  end
  begin
     id 2 
     name lfemur
     direction 0.34202 -0.939693 0  
     length 7.51389  
     axis 0 0 20  XYZ
    dof rx ry rz
    limits (-160.0 20.0)
           (-70.0 70.0)
           (-60.0 70.0)
  end
  begin
     id 3 
     name ltibia
     direction 0.34202 -0.939693 0   
     length 7.54147   
     axis 0 0 20   XYZ
    dof rx
    limits (-10.0 170.0)
  end
  begin
     id 4 
     name lfoot
     direction 0.10378 -0.285133 0.952853   
     length 2.2132   
     axis -90 7.62852e-016 20   XYZ
    dof rx rz
    limits (-45.0 90.0)
           (-70.0 20.0)
  end
  begin
     id 5 
     name ltoes
     direction 1.5354e-011 -4.2171e-011 1   
     length 1.10362   
     axis -90 7.62852e-016 20   XYZ
    dof rx
    limits (-90.0 20.0)
  end
  begin
     id 6 
     name rhipjoint
     direction -0.591912 -0.747009 0.302685   
     length 2.47092  
     axis 0 0 0  XYZ 
  end
  begin
     id 7 
     name rfemur
     direction -0.34202 -0.939693 0   
     length 7.69991   
     axis 0 0 -20   XYZ
    dof rx ry rz
    limits (-160.0 20.0)
           (-70.0 70.0)
           (-70.0 60.0)
  end
  begin
     id 8 
     name rtibia
     direction -0.34202 -0.939693 0   
     length 7.40774   
     axis 0 0 -20   XYZ
    dof rx
    limits (-10.0 170.0)
 end
 begin
     id 9 
     name rfoot
     direction -0.0916245 -0.251736 0.963449   
     length 2.08235  
     axis -90 -7.62852e-016 -20   XYZ
    dof rx rz
    limits (-45.0 90.0)
           (-20.0 70.0)
  end
  begin
     id 10 
     name rtoes
     direction -1.53527e-011 -4.21878e-011 1   
     length 1.04369   
     axis -90 -7.62852e-016 -20   XYZ
    dof rx
    limits (-90.0 20.0)
  end
  begin
     id 11 
     name lowerback
     direction -0.0122523 0.991496 -0.12956   
     length 2.10814   
     axis 0 0 0   XYZ
    dof rx ry rz
    limits (-20.0 45.0)
           (-30.0 30.0)
           (-30.0 30.0)
  end
  begin
     id 12 
     name upperback
     direction 0.012378 0.999784 -0.0167122   
     length 2.11728   
     axis 0 0 0   XYZ
    dof rx ry rz
    limits (-20.0 45.0)
           (-30.0 30.0)
           (-30.0 30.0)
  end
  begin
     id 13 
     name thorax
     direction 0.0187236 0.998893 0.0431542   
     length 2.15267   
     axis 0 0 0   XYZ
    dof rx ry rz
    limits (-20.0 45.0)
           (-30.0 30.0)
           (-30.0 30.0)
  end
  begin
     id 14 
     name lowerneck
     direction 0.0165467 0.987304 0.157979   
     length 1.72129   
     axis 0 0 0   XYZ
    dof rx ry rz
    limits (-20.0 45.0)
           (-30.0 30.0)
           (-30.0 30.0)
  end
  begin
     id 15 
     name upperneck
     direction -0.0560236 0.986819 -0.151818   
     length 1.75382   
     axis 0 0 0   XYZ
    dof rx ry rz
    limits (-20.0 45.0)
           (-30.0 30.0)
           (-30.0 30.0)
  end
  begin
     id 16
     name head
     direction -0.0173602 0.99745 -0.0692312  
     length 1.76328  
     axis 0 0 0   XYZ
    dof rx ry rz
    limits (-20.0 45.0)
           (-30.0 30.0)
           (-30.0 30.0)
  end
  begin
     id 17 
     name lclavicle
     direction 0.957734 0.271724 -0.094399  
     length 3.5782  
     axis 0 0 0   XYZ
    dof ry rz
    limits (-20.0 10.0)
           (0.0 20.0)
  end
  begin
     id 18 
     name lhumerus
     direction 1 -4.48963e-011 1.21581e-027   
     length 5.25525   
     axis 180 -30 -90   XYZ
    dof rx ry rz
    limits (-60.0 90.0)
           (-90.0 90.0)
           (-90.0 90.0)
  end
  begin
     id 19
     name lradius
     direction 1 -4.48975e-011 3.71216e-028   
     length 3.35106   
     axis 180 -30 -90   XYZ
    dof rx
    limits (-10.0 170.0)
  end
  begin
     id 20
     name lwrist
     direction 1 -4.48957e-011 4.76535e-027   
     length 1.67553   
     axis -3.27501e-015 90 90   XYZ
    dof ry
    limits (-180.0 0.0)
 end
  begin
     id 21 
     name lhand
     direction 1 -4.49008e-011 9.52727e-027   
     length 0.574153   
     axis -6.08097e-015 90 90   XYZ
    dof rx rz
    limits (-90.0 90.0)
           (-45.0 45.0)
  end
  begin
     id 22 
     name lfingers
     direction 1 -4.48996e-011 1.90562e-026   
     length 0.462897   
     axis -1.21618e-014 90 90   XYZ
    dof rx
    limits (0.0 90.0)
  end
  begin
     id 23
     name lthumb
     direction 0.707107 -6.34908e-011 0.707107   
     length 0.66463   
     axis -90 45 -1.62303e-014   XYZ
    dof rx rz
    limits (-45.0 45.0)
           (-45.0 45.0)
  end
  begin
     id 24 
     name rclavicle
     direction -0.950439 0.29623 -0.0944132   
     length 3.45861  
     axis 0 0 0   XYZ 
    dof ry rz
    limits (-10.0 20.0)
           (-20.0 0.0)
  end
  begin
     id 25 
     name rhumerus
     direction -1 -4.48986e-011 1.25473e-027  
     length 5.33104   
     axis 180 30 90   XYZ
    dof rx ry rz
    limits (-90.0 60.0)
           (-90.0 90.0)
           (-90.0 90.0)
  end
  begin
     id 26 
     name rradius
     direction -1 -4.4894e-011 1.66273e-027   
     length 3.39883   
     axis 180 30 90   XYZ
    dof rx
    limits (-10.0 170.0)
  end
  begin
     id 27 
     name rwrist
     direction -1 -4.48946e-011 4.76572e-027   
     length 1.69941   
     axis -3.27501e-015 -90 -90   XYZ
    dof ry
    limits (-180.0 0.0)
  end
  begin
     id 28
     name rhand
     direction -1 -4.49028e-011 9.52595e-027   
     length 0.913886   
     axis -6.08097e-015 -90 -90   XYZ
    dof rx rz
    limits (-90.0 90.0)
           (-45.0 45.0)
  end
  begin
     id 29
     name rfingers
     direction -1 -4.48945e-011 1.9063e-026   
     length 0.736798   
     axis -1.21618e-014 -90 -90   XYZ
    dof rx
    limits (0.0 90.0)
  end
  begin
     id 30
     name rthumb
     direction -0.707107 -6.34966e-011 0.707107   
     length 1.0579   
     axis -90 -45 1.62303e-014   XYZ
    dof rx rz
    limits (-45.0 45.0)
           (-45.0 45.0)
  end
:hierarchy
  begin
    root lhipjoint rhipjoint lowerback
    lhipjoint lfemur
    lfemur ltibia
    ltibia lfoot
    lfoot ltoes
    rhipjoint rfemur
    rfemur rtibia
    rtibia rfoot
    rfoot rtoes
    lowerback upperback
    upperback thorax
    thorax lowerneck lclavicle rclavicle
    lowerneck upperneck
    upperneck head
    lclavicle lhumerus
    lhumerus lradius
    lradius lwrist
    lwrist lhand lthumb
    lhand lfingers
    rclavicle rhumerus
    rhumerus rradius
    rradius rwrist
    rwrist rhand rthumb
    rhand rfingers
  end

#!OML:ASF F:\VICON\USERDATA\INSTALL\rory3\rory3.ASF
:FULLY-SPECIFIED
:DEGREES
1268
root -3.22045 17.2398 39.6069 178.521 -20.3416 -185.448
lowerback 13.8231 -0.800779 -3.13333
upperback 2.95179 -1.77216 0.450122
thorax -4.52542 -0.958299 2.56081
lowerneck -16.1413 -1.15352 3.62733
upperneck 8.489 -1.39232 -9.17987
head 5.09817 -1.29269 -3.61789
rclavicle 5.83433e-014 -1.51076e-014
rhumerus -63.3199 -29.7742 -40.2257
rradius 21.3278
rwrist 7.34863
rhand -11.7693 1.77592
rfingers 7.12502
rthumb 14.2793 -27.7131
lclavicle 5.83433e-014 -1.51076e-014
lhumerus -57.2745 30.8945 46.4096
lradius 18.6954
lwrist -5.38007
lhand -15.2329 384.941
lfingers 7.12502
lthumb 10.9402 414.636
rfemur -18.5446 -8.67305 8.09666
rtibia 43.4018
rfoot -15.3827 -20.0145
rtoes 12.9527
lfemur -8.19032 -5.63601 -27.3369
ltibia 36.8373
lfoot -18.2511 -5.05259
ltoes -0.739307
1269
root -3.26237 17.2487 39.6398 178.31 -20.3919 -185.322
lowerback 13.8475 -0.993274 -3.33362
upperback 3.10461 -2.06269 0.613932
thorax -4.34555 -1.11205 2.89329
lowerneck -15.8413 -0.977095 3.59879
upperneck 8.34997 -1.15814 -9.11284
head 5.02237 -1.16555 -3.56424
rclavicle -8.94531e-015 2.54444e-014
rhumerus -64.8206 -30.4993 -36.709
rradius 20.5922
rwrist 8.71822
rhand -12.8251 1.64789
rfingers 7.12502
rthumb 13.2618 -27.9102
lclavicle -8.94531e-015 2.54444e-014
lhumerus -58.8789 31.2268 45.039
lradius 18.47
lwrist -5.49207
lhand -15.5658 384.861
lfingers 7.12502
lthumb 10.619 414.573
rfemur -18.1059 -8.00197 7.98309
rtibia 43.0115
rfoot -16.186 -19.9499
rtoes 16.6777
lfemur -8.03481 -5.65724 -27.3827
ltibia 36.7736
lfoot -18.1215 -5.16456
ltoes 0.444587
1270
root -3.30199 17.2623 39.6864 178.486 -20.0164 -185.248
lowerback 13.5922 -1.04084 -3.4904
upperback 3.09839 -2.13304 0.644463
thorax -4.20064 -1.14668 3.0163
lowerneck -15.372 -0.809136 3.7979
upperneck 8.23126 -0.969095 -9.05987
head 4.92001 -1.0471 -3.55428
rclavicle -3.48867e-014 -4.77083e-015
rhumerus -66.0095 -30.7689 -34.5792
rradius 20.4393
rwrist 9.07603
rhand -14.3137 0.30296
rfingers 7.12502
rthumb 11.8267 -29.3431
lclavicle -3.48867e-014 -4.77083e-015
lhumerus -60.4589 32.0911 42.8539
lradius 17.8126
lwrist -6.93602
lhand -16.1223 384.585
lfingers 7.12502
lthumb 10.0821 414.323
rfemur -18.2953 -7.32931 7.91927
rtibia 42.6356
rfoot -16.3308 -19.9606
rtoes 17.7772
lfemur -8.36001 -5.5668 -27.4975
ltibia 36.7499
lfoot -18.0919 -4.83727
ltoes 0.239044
1271
root -3.33828 17.2694 39.738 178.429 -19.6869 -185.052
lowerback 13.7895 -1.06866 -3.47279
upperback 2.92848 -2.16626 0.631608
thorax -4.48584 -1.1491 3.00969
lowerneck -14.5763 -0.717277 4.02456
upperneck 8.21032 -0.869443 -9.00712
head 4.78795 -0.96455 -3.55371
rclavicle 4.49253e-014 6.36111e-015
rhumerus -67.0135 -30.675 -33.2599
rradius 20.5547
rwrist 8.61911
rhand -15.5505 -0.685444
rfingers 7.12502
rthumb 10.6337 -30.3964
lclavicle 4.49253e-014 6.36111e-015
lhumerus -61.522 32.2513 41.3294
lradius 17.1155
lwrist -8.07042
lhand -16.4898 384.277
lfingers 7.12502
lthumb 9.7276 414.033
rfemur -18.2864 -6.89898 7.98812
rtibia 42.2292
rfoot -16.3617 -19.9194
rtoes 18.7339
lfemur -8.47498 -5.5853 -27.4956
ltibia 36.725
lfoot -18.0441 -4.51205
ltoes 0.323324
1272
root -3.36917 17.2772 39.7918 178.425 -19.2994 -184.789
lowerback 13.8989 -1.1594 -3.45198
upperback 3.16715 -2.30469 0.773946
thorax -4.27876 -1.23755 3.16978
lowerneck -15.5281 -0.506692 3.69188
upperneck 8.54246 -0.548583 -8.70288
head 5.07099 -0.823222 -3.39525
rclavicle 2.38542e-015 -1.59028e-015
rhumerus -66.7754 -31.6686 -31.9672
rradius 20.312
rwrist 8.57706
rhand -16.13 -1.04765
rfingers 7.12502
rthumb 10.0747 -30.7865
lclavicle 2.38542e-015 -1.59028e-015
lhumerus -62.3279 34.0249 39.4777
lradius 16.2562
lwrist -10.6092
lhand -16.6099 383.988
lfingers 7.12502
lthumb 9.61172 413.749
rfemur -18.4603 -6.58054 8.16728
rtibia 41.8715
rfoot -15.8376 -20.0408
rtoes 17.9795
lfemur -8.68926 -5.64616 -27.4241
ltibia 36.7185
lfoot -17.9894 -3.92614
ltoes -0.218661
1273
root -3.39412 17.2833 39.8427 178.396 -19.0318 -184.544
lowerback 13.9621 -1.12222 -3.31553
upperback 3.07166 -2.23725 0.647463
thorax -4.42953 -1.19731 2.95302
lowerneck -14.8157 -0.521568 4.25499
upperneck 8.42837 -0.656035 -8.73163
head 4.90793 -0.834791 -3.49352
rclavicle -3.98563e-014 3.57812e-014
rhumerus -67.3583 -32.0506 -31.414
rradius 20.5616
rwrist 7.74755
rhand -16.3531 -1.31447
rfingers 7.12502
rthumb 9.85954 -31.0636
lclavicle -3.98563e-014 3.57812e-014
lhumerus -62.6746 34.8086 37.7808
lradius 15.3228
lwrist -13.5059
lhand -17.0588 383.561
lfingers 7.12502
lthumb 9.17864 413.341
rfemur -18.5756 -6.42598 8.3167
rtibia 41.5176
rfoot -15.458 -19.9396
rtoes 18.1869
lfemur -8.89454 -5.68347 -27.3248
ltibia 36.7154
lfoot -17.8657 -3.62556
ltoes -0.066088
